<svg width="81" height="93" viewBox="0 0 81 93" fill="none" xmlns="http://www.w3.org/2000/svg">
<g clip-path="url(#clip0)">
<path d="M72.3214 5.8125H8.67857C6.37687 5.8125 4.16944 6.73108 2.54189 8.36616C0.914347 10.0012 0 12.2189 0 14.5312L0 78.4688C0 80.7811 0.914347 82.9988 2.54189 84.6338C4.16944 86.2689 6.37687 87.1875 8.67857 87.1875H33.4939V59.5218H22.1032V46.5H33.4939V36.5752C33.4939 25.2862 40.1836 19.0505 50.4297 19.0505C55.3367 19.0505 60.4679 19.9296 60.4679 19.9296V31.0097H54.8142C49.2437 31.0097 47.5061 34.4827 47.5061 38.0446V46.5H59.9418L57.953 59.5218H47.5061V87.1875H72.3214C74.6231 87.1875 76.8306 86.2689 78.4581 84.6338C80.0857 82.9988 81 80.7811 81 78.4688V14.5312C81 12.2189 80.0857 10.0012 78.4581 8.36616C76.8306 6.73108 74.6231 5.8125 72.3214 5.8125Z" fill="#4267B2"/>
</g>
<defs>
<clipPath id="clip0">
<rect width="81" height="93" fill="white"/>
</clipPath>
</defs>
</svg>
