<svg width="81" height="93" viewBox="0 0 81 93" fill="none" xmlns="http://www.w3.org/2000/svg">
<g clip-path="url(#clip0)">
<path d="M40.5181 25.6114C29.019 25.6114 19.7438 34.9295 19.7438 46.4819C19.7438 58.0342 29.019 67.3524 40.5181 67.3524C52.0172 67.3524 61.2924 58.0342 61.2924 46.4819C61.2924 34.9295 52.0172 25.6114 40.5181 25.6114ZM40.5181 60.0504C33.0871 60.0504 27.0121 53.9655 27.0121 46.4819C27.0121 38.9983 33.069 32.9133 40.5181 32.9133C47.9672 32.9133 54.0241 38.9983 54.0241 46.4819C54.0241 53.9655 47.9491 60.0504 40.5181 60.0504ZM66.9877 24.7577C66.9877 27.4641 64.8181 29.6256 62.1422 29.6256C59.4482 29.6256 57.2967 27.4459 57.2967 24.7577C57.2967 22.0694 59.4663 19.8897 62.1422 19.8897C64.8181 19.8897 66.9877 22.0694 66.9877 24.7577ZM80.7469 29.6983C80.4395 23.1774 78.9569 17.4012 74.2018 12.6422C69.4648 7.88325 63.7152 6.3938 57.2244 6.06685C50.5346 5.6854 30.4835 5.6854 23.7938 6.06685C17.321 6.37563 11.5714 7.86509 6.81631 12.6241C2.06117 17.3831 0.596662 23.1592 0.271216 29.6801C-0.108472 36.4008 -0.108472 56.5448 0.271216 63.2655C0.578582 69.7864 2.06117 75.5625 6.81631 80.3215C11.5714 85.0805 17.3029 86.57 23.7938 86.8969C30.4835 87.2784 50.5346 87.2784 57.2244 86.8969C63.7152 86.5881 69.4648 85.0987 74.2018 80.3215C78.9389 75.5625 80.4215 69.7864 80.7469 63.2655C81.1266 56.5448 81.1266 36.419 80.7469 29.6983ZM72.1045 70.4766C70.6942 74.0368 67.9641 76.7795 64.4023 78.2145C59.0686 80.3397 46.4123 79.8493 40.5181 79.8493C34.6239 79.8493 21.9496 80.3215 16.6339 78.2145C13.0902 76.7977 10.3601 74.0549 8.93171 70.4766C6.81631 65.1182 7.30448 52.4034 7.30448 46.4819C7.30448 40.5604 6.83439 27.8274 8.93171 22.4872C10.342 18.927 13.0721 16.1842 16.6339 14.7493C21.9676 12.6241 34.6239 13.1145 40.5181 13.1145C46.4123 13.1145 59.0866 12.6422 64.4023 14.7493C67.946 16.1661 70.6761 18.9088 72.1045 22.4872C74.2199 27.8456 73.7317 40.5604 73.7317 46.4819C73.7317 52.4034 74.2199 65.1364 72.1045 70.4766Z" fill="url(#paint0_linear)"/>
</g>
<defs>
<linearGradient id="paint0_linear" x1="40.5091" y1="5.78076" x2="40.5091" y2="87.183" gradientUnits="userSpaceOnUse">
<stop stop-color="#C13584"/>
<stop offset="1" stop-color="#F77737"/>
</linearGradient>
<clipPath id="clip0">
<rect width="81" height="93" fill="white"/>
</clipPath>
</defs>
</svg>
