<svg width="83" height="95" viewBox="0 0 83 95" fill="none" xmlns="http://www.w3.org/2000/svg">
<path d="M74.1071 5.9375H8.89286C3.98326 5.9375 0 9.92676 0 14.8438V80.1562C0 85.0732 3.98326 89.0625 8.89286 89.0625H74.1071C79.0167 89.0625 83 85.0732 83 80.1562V14.8438C83 9.92676 79.0167 5.9375 74.1071 5.9375ZM65.0475 35.4023C65.0846 35.9219 65.0846 36.46 65.0846 36.9795C65.0846 53.0664 52.8569 71.6025 30.5136 71.6025C23.6217 71.6025 17.2299 69.5986 11.8571 66.1475C12.8391 66.2588 13.7839 66.2959 14.7844 66.2959C20.4721 66.2959 25.6966 64.3662 29.8652 61.1006C24.5295 60.9893 20.046 57.4824 18.5083 52.6582C20.3795 52.9365 22.0654 52.9365 23.9922 52.4355C18.4342 51.3037 14.2656 46.4053 14.2656 40.4863V40.3379C15.8775 41.2471 17.7672 41.8037 19.7496 41.8779C18.0829 40.7677 16.7167 39.2615 15.7727 37.4937C14.8288 35.726 14.3365 33.7517 14.3397 31.7471C14.3397 29.4834 14.9326 27.4053 15.9886 25.6055C21.9728 32.9902 30.9583 37.8145 41.0368 38.334C39.3138 30.0772 45.4833 23.3789 52.894 23.3789C56.3955 23.3789 59.5451 24.8447 61.7683 27.2197C64.5103 26.7002 67.1411 25.6797 69.4754 24.2881C68.5676 27.1084 66.6594 29.4834 64.1397 30.9863C66.5853 30.7266 68.9567 30.04 71.1429 29.0938C69.494 31.5244 67.419 33.6768 65.0475 35.4023Z" fill="#1DA1F2"/>
</svg>
