<svg xmlns="http://www.w3.org/2000/svg" viewBox="0 0 206.11 207.23"><defs><style>.cls-1{fill:#fffcfc;fill-rule:evenodd;}</style></defs><title>wargaming-title-logo</title><g id="Layer_2" data-name="Layer 2"><g id="Layer_1-2" data-name="Layer 1"><path class="cls-1" d="M102.61,0a103.49,103.49,0,0,1,103.5,103.48v0c0,57.07-46.22,103.73-103.51,103.73A103.62,103.62,0,0,1,102.61,0Zm-.13,19.36A83.94,83.94,0,0,1,144.8,175.81c5.21-18.23,7.38-36.89,6.51-58.37,5.42,1.51,8.46,2.38,13.88,4.12a283.83,283.83,0,0,0-21.91-44.7A179.57,179.57,0,0,1,114.2,117l17.36-1.08c-15,26.69-36,39.71-62.71,43.39C62.78,129.15,67.33,79.9,101.4,56.9l3.47,16.49c6.73-10.64,19.75-24.74,29.51-34.5a92.63,92.63,0,0,0-50.56-4.78c2.82,2.39,6.3,5.43,9.12,7.81-38.41,16.28-59.46,43-73.35,74a81.47,81.47,0,0,1-.86-12.59,83.84,83.84,0,0,1,83.73-84Z"/></g></g></svg>