<svg xmlns="http://www.w3.org/2000/svg" viewBox="0 0 923.08 207.23"><defs><style>.cls-1,.cls-2{fill:#fffcfc;}.cls-1{fill-rule:evenodd;}</style></defs><title>wargaming-logo</title><g id="Layer_2" data-name="Layer 2"><g id="Layer_1-2" data-name="Layer 1"><path class="cls-1" d="M103.5,0A103.49,103.49,0,0,1,207,103.5c0,57.07-46.22,103.73-103.51,103.73A103.62,103.62,0,0,1,103.5,0Zm0,19.75A83.94,83.94,0,0,1,145.82,176.2c5.21-18.23,7.38-36.89,6.51-58.37,5.42,1.51,8.46,2.38,13.88,4.12a283.85,283.85,0,0,0-21.91-44.7,179.67,179.67,0,0,1-29.08,40.14l17.36-1.08c-15,26.69-36,39.71-62.71,43.39-6.07-30.16-1.52-79.41,32.55-102.41l3.47,16.49c6.73-10.64,19.75-24.74,29.51-34.5A92.51,92.51,0,0,0,84.84,34.5c2.82,2.39,6.3,5.43,9.12,7.81-38.41,16.28-59.46,43-73.35,74a82.06,82.06,0,0,1-.86-12.59A83.85,83.85,0,0,1,103.5,19.75Z"/><path class="cls-2" d="M299.45,153.85v4.55H287.3v8.68h13.45v4.56H282.09V141.48h18.44V146H287.08v7.6c4.12.22,8.24.22,12.37.22ZM261,171.42H242.6V141.48h5.2v25.39h13.46a31.45,31.45,0,0,0-.22,4.55Zm98.73-29.73-6.94,8c-.87-.43-1.74-.65-2.61-1.08l2.61-6.95Zm12.37,5.43c-.65.43-1.09,1.3-1.09,2.82,0,2.6.87,3.47,3.26,3.91l4.77.43c4.78.43,7.6,3,7.6,8.25v1.73A10.22,10.22,0,0,1,386,168a5.92,5.92,0,0,1-2,2.6,7.54,7.54,0,0,1-3.69,1.31,27.09,27.09,0,0,1-4.12.21H366.5v-5.2h11.93c2.17,0,3.47-.44,3.26-3.69a3.9,3.9,0,0,0-.87-2.82,7.07,7.07,0,0,0-2.61-.87l-5-.44a8.38,8.38,0,0,1-5-2c-1.3-1.3-2.17-3.25-2.17-6.51v-1.52c.22-3.25,1.3-5.21,3.26-6.29s4.55-1.3,7.16-1.3h8.89v5.21h-9.54c-1.74,0-3,0-3.69.43Zm60.54,24.3V141.48h13a7.54,7.54,0,0,1,3.9,1.3c1.31.87,2.17,2.39,2.17,4.77v3.69A6.19,6.19,0,0,1,449.6,156a5.67,5.67,0,0,1,2.17,4.55v4.78a6.21,6.21,0,0,1-6.07,6.07Zm13.45-12.58a2.44,2.44,0,0,0-1.3-.65h-7.16v8.46h7.16a1.89,1.89,0,0,0,1.3-.65,1.82,1.82,0,0,0,.44-1.3v-4.56C446.78,159.92,446.57,159.27,446.13,158.84Zm.22-12.15a2,2,0,0,0-1.52-.66h-7.16v7.6h7.38a1.89,1.89,0,0,0,1.3-.65,2.39,2.39,0,0,0,.65-1.52V148A7.45,7.45,0,0,1,446.35,146.69Zm187.7,7.16H646.2v4.55H634.05v8.68H647.5v4.56H629.06V141.48H647.5V146H634.05Zm-28.43,17.57H588.91V141.48h5.21v25.39h11.5v4.55ZM569,146.25h-7.6v25.17h-5.2V146.25h-7.6v-4.56H569Zm-40.58,0h-7.59v25.17h-5.21V146.25H508v-4.56h20.4v4.56Zm-52.29,18.88-1.52,6.51h-5.43l8.25-29.95h6.73l8.24,29.95h-5.42l-1.74-6.51Zm1.08-4.56h6.51l-3.25-13ZM339.37,146.25h-7.59v25.17h-5.21V146.25H319v-4.56h20.39v4.56ZM288,102,306.17,35.8H290.12l-10,43-6.94-43H255l-6.94,43-10-43H222L240.21,102H256.7l7.38-42.1,7.37,42.1Zm28.42,0,3-13.67h16.71l3,13.67h15L335.9,35.8H319.41L301.4,102Zm11.5-49.91,5.64,25H322.23ZM376,77.25h9.12L394.05,102h16.5L398.83,74.43a11.86,11.86,0,0,0,8.24-11.29V48.39a12.15,12.15,0,0,0-9.54-11.94c-3.48-.86-6.95-.65-10.64-.65H361.94V102H376Zm0-28.64H388c2.6,0,5,1.3,5,4.34v6.51c0,3.25-2.17,4.77-5,4.77H376Zm73.35,54c6.94,0,11.06-2,14.54-4.56V62.93H441.58V75.51h8.24V88.1a26.36,26.36,0,0,1-4.34.43h-5.64c-8,0-10-5.64-10-11.72V60.32c0-6.29,2.82-10.85,10.41-10.85h22.57V35.37H439.41c-13,0-22.35,7.81-23.66,21.26,0,1.09-.21,2.17-.21,3.26V79c0,13.89,9.54,23.66,22.56,23.66Zm34.06-.65,3-13.67H503.2l3,13.67h15L503,35.8H486.49l-18,66.19Zm11.29-49.91,5.64,25H489.1Zm95,49.91V35.8H572L558.75,85.06l-13-49.26H527.94V102h13.45V61.41L551.59,102h14.32l10.2-40.58V102ZM601.5,35.8V102h14.1V35.8Zm61,0V75.3L641.21,35.8H627.32V102h13.45V62.49L662.25,102h13.89V35.8Zm140.83,0V75.3L782,35.8H768.15V102H781.6V62.49L803.08,102H817V35.8Zm38.62,12.81h28V35.8H827.82V102h42.09V89.18h-28V74h25.39V61.41H841.92ZM877.07,35.8V48.61h16.06V102h14.11V48.61h15.84V35.8ZM718.24,102.64c6.94,0,11.06-2,14.54-4.56V62.93H710.43V75.51h8.24V88.1a26.36,26.36,0,0,1-4.34.43h-5.64c-8,0-10-5.64-10-11.72V60.32c0-6.29,2.82-10.85,10.41-10.85h22.57V35.37H708.26c-13,0-22.35,7.81-23.66,21.26,0,1.09-.21,2.17-.21,3.26V79c0,13.89,9.55,23.66,22.56,23.66Z"/><path class="cls-1" d="M757.73,103.07H744.06V89.62h13.67Z"/></g></g></svg>