<svg width="107" height="95" viewBox="0 0 107 95" fill="none" xmlns="http://www.w3.org/2000/svg">
<path d="M102.106 23.0232C100.939 18.635 97.5015 15.179 93.1367 14.0062C85.225 11.875 53.5 11.875 53.5 11.875C53.5 11.875 21.7753 11.875 13.8634 14.0062C9.49851 15.1792 6.06077 18.635 4.89399 23.0232C2.77405 30.9771 2.77405 47.572 2.77405 47.572C2.77405 47.572 2.77405 64.1669 4.89399 72.1208C6.06077 76.509 9.49851 79.821 13.8634 80.9938C21.7753 83.125 53.5 83.125 53.5 83.125C53.5 83.125 85.2248 83.125 93.1367 80.9938C97.5015 79.821 100.939 76.509 102.106 72.1208C104.226 64.1669 104.226 47.572 104.226 47.572C104.226 47.572 104.226 30.9771 102.106 23.0232ZM43.1242 62.639V32.505L69.6399 47.5724L43.1242 62.639Z" fill="#FF0000"/>
</svg>
